<?xml version="1.0" encoding="utf-8"?>
<!-- Generator: Adobe Illustrator 24.2.3, SVG Export Plug-In . SVG Version: 6.00 Build 0)  -->
<svg version="1.1" id="Layer_1" xmlns="http://www.w3.org/2000/svg" xmlns:xlink="http://www.w3.org/1999/xlink" x="0px" y="0px"
	 viewBox="0 0 2000 2000" style="enable-background:new 0 0 2000 2000;" xml:space="preserve">
<style type="text/css">
	.st0{fill:#FFFFFF;}
</style>
<g id="Layer_1_1_">
	<path class="st0" d="M451.1,1872.1c-0.3-0.4-0.6-0.8-0.9-1.1c-0.6-0.8-1.7-2.6-2.7-3.8c-0.6-0.8-1.5-1.6-1.5-1.9s1.4-1.3,1.4-2.5
		c0-1.2-0.8-2.4-1.4-3.5c-0.4-0.8-0.7-1.8-0.8-2.7c0-0.4,0-1.1,0.8-1c1.2,0.2,1.7-1.4,2-2.8c0.2-0.7,0.1-2.7-1-3.4
		c-1.2-0.8-2.9-0.5-3.8,0.6c-0.9,0.8-0.9,2.6-1.2,4c-0.3,1.2-1.4,4.3-2.2,6.9c-0.4,1.4-1.9,5-2.1,5.6c-0.6,1.5-0.9,4.6-1.6,6.7
		c-0.2,0.3-0.4,0.6-0.6,0.8c-0.5,0.4-1,1.7,0,2c2,0.5,1.8-1.9,1.8-2c0.5-1.4,1.3-3,1.8-4.8c0.1-0.6,0.3-1.1,0.5-1.7
		c0.1-0.1,0.6-1.3,0.9-1.6c0.1,1.4-0.1,2.9-0.5,4.2c-0.4,0.9-0.7,1.8-0.8,2.8c-0.3,2.6,0.5,4.3,1.5,6.6c0.7,1.7,1.7,4.6,2,5.5
		l-1.4,0.9c-2.3,1.4-5,5.8-7,7.4c-0.3,0.2-0.8,0.3-1.1,0.7c-0.6,0.8,0.5,1.6,0.7,1.8c0.3,0.4,1.8,2.7,2.1,3c0.8,0.9,1.1-0.7,0.7-1.4
		c-0.7-1.2-0.7-2.7-0.3-3.1s2.2-1.5,3.2-2.3c0.3-0.2,2.1-1.4,2.1-1.4c-0.3,1.4-0.3,2.8-0.1,4.3c0.2,1.3,0.2,3.1,0.2,3.4
		c0,0.7-0.1,1.3-0.4,1.9c-0.4,0.9,0.1,1.6,0.7,1.6h5.9c0.4-0.4,0-0.8-1.7-1.2c-1-0.2-1.8-0.9-2-1.9c-0.1-1.6,0.1-3.2,0.5-4.8
		c0.2-0.9,1.2-5.9,1.2-5.9c0.6-0.3,1.2-0.7,1.7-1.3c0.4-0.6,0.5-1.5,0.4-3c-0.1-2.9-0.4-5.7-1-8.5c-1.5-6-1.3-6.8-1.3-6.8
		c0.3,0.4,0.7,0.8,1.1,1.2c1,0.8,2,1.7,2.9,2.7c0.2,0.3,0.2,0.6,0.1,0.9c0,0.7,0.5,1.5,1.1,1.3
		C451.3,1873.8,451.6,1872.8,451.1,1872.1C451.1,1872.1,451.1,1872.1,451.1,1872.1z"/>
	<path class="st0" d="M483.2,1897.8c-0.5,0-3.5,0.2-3.9-0.2c-1.6-1.7-3.2-8-4.2-9.9c-0.5-1.1-3.1-9.9-4.9-13.7v-2.4
		c0,0,0.8,0.3,0.9,0.4c1.3,0.8,2.6,1.7,3.7,2.8c0.3,0.4,0.6,0.8,0.8,1.2c0.4,0.7,1.5,0.6,2.3,0.2c0.5-0.6,0.5-1.4-0.1-2
		c-0.1-0.1-0.1-0.1-0.2-0.2c-0.6-0.3-1.2-0.6-1.8-1c-0.4-0.3-3.6-3.2-4-3.7c-0.3-0.3-1.5-1.4-1.5-1.4c-0.2-2.5-0.5-5.1-1-7.6
		c-0.3-0.7-0.4-1.5-0.5-2.3c0-0.4-0.1-2.3,0.8-2.1c1.5,0.3,2.3-2.7,2.1-4.5c-0.1-1.6-1.4-2.9-3.1-2.9c0,0-0.1,0-0.1,0
		c-1.2,0.1-2.3,1-2.7,2.2c-0.2,1-0.2,2.1,0,3.2c0,0.2,0,0.7,0,1c-0.1,0.7-0.3,1.4-0.6,2.1c-1.1,0.9-2,1.9-2.8,3.1
		c-0.9,1.4-1.6,4.8-2.2,6.7c-0.9,3-1.4,7.7-2.1,8.8c-0.5,0.8-0.7,1.7-0.7,2.6c0.2,1.7,2,1.3,2.4,0.5c0.3-0.8,0.4-1.6,0.4-2.4
		c0.1-1.4,2.5-7.9,2.5-7.9s-0.2,4.3-0.2,5c-0.3,1.2-0.6,2.4-0.8,3.7c-0.2,1-0.2,1.8-0.3,3.4c-0.2,2.3-0.5,4.6-1,6.9
		c-1.9,2-3,5.7-4.8,8.1c-0.3,0.4-2,1.6-0.8,2.9c0.7,0.7,1.4,1.4,2.2,2.1c0.5,0.5,1.1,0.9,1.8,1.2c0.5,0.1,1.3,0.1,1.4-0.5
		c0-0.3-0.9-0.7-1.1-0.9c-0.5-0.7-0.9-1.5-1-2.4c0-0.2,0.1-0.5,0.2-0.7c0.3-0.7,4.2-6,5.3-7.9s2.5-6.7,3.3-8.6
		c0.6,2,3.9,7.7,5.4,10.5c0.7,2.1,1.8,4,3.7,7.6c0.3,0.6,0.4,2.1,0.9,2.4c0.3,0.2,0.8,0.1,1.7-0.4c2.5-1.3,5.7-1.4,5.7-2
		S483.6,1897.7,483.2,1897.8z"/>
	<path class="st0" d="M400.5,1881.1L400.5,1881.1C400.5,1881.1,400.5,1881.1,400.5,1881.1z"/>
	<path class="st0" d="M425.3,1901.6c0-0.1,0.2-0.2,0.1-0.5c-0.5-0.9-4.6-1.2-4.8-2.5c-0.1-0.2,0.6-4.6,0.7-5.4
		c0.2-1.2,0.8-6,1.2-7.9c0.9-4.8,0.3-10,0.5-10.1l1.5,2.2l3.1-2.1c0.8,0.3,1.6,0,2.2-0.6c0.2-0.3,0.2-1,0.2-1.1l3.7-3.2l-5.3-7.3
		c0,0-4.7,4.3-5.1,4.2c-0.1-1-0.1-2-0.1-3c0.1-1.4-0.1-2.8-0.4-4.1c-0.4-0.7-0.6-1.5-0.6-2.2c0-0.1,0.3-0.2,0.2-0.5
		c0-0.3-0.1-0.5-0.1-0.8c-0.1-0.8,0-1,0.7-0.9c1.5,0.2,2.2-3.3,2.3-3.5c0.1-0.9-0.1-1.7-0.6-2.5c-0.7-1-1.9-1.4-3.1-1
		c-1.4,0.3-2.5,1.5-2.5,3c-0.1,1.2,0.6,1.9,0.6,3.5c0,0.1,0,0.3-0.1,0.4c-0.5,0.6-2.3,1.9-3.1,2.9c-0.7,1.2-1.2,2.4-1.7,3.6
		c-0.2,0.5-0.8,1.5-1,2c-0.4,0.9-0.7,1.9-1,2.9c-0.8,3.2-0.3,7.1-0.4,7.6c0,0.1-0.1,0.2-0.2,0.3c-0.1,0.1-0.3,0.2-0.3,0.3
		s-0.5,0.4-0.5,0.8c0.1,0.7,0.6,1.8,1.6,1.5c0.5-0.2,0.8-0.8,0.9-0.9c0.1-0.1,0.4-0.6,0.4-0.7c0.1-0.2,0.1-0.5,0.1-0.7
		c0-0.2,0-1.1,0-1.3c0.3-1.8,0.6-3.7,1.1-5.5c0.4-0.9,0.8-1.9,1.1-2.8c0,0,0,2.9,0,3.2c0,0.4-0.2,1.3-0.3,1.7c0,0.1,0,0.4,0,0.6
		c-0.1,0.3-1.1,2-1,3.9c0.1,1.5,0.8,2.4,0.6,3.1s-1.3,5.3-1.4,5.6c-0.1,0.2-0.2,0.3-0.4,0.5c-0.4,0.5-1.2,1.6-1.6,2.1
		c-0.7,0.9-2.9,4.4-2.9,4.4s-1-3.6-1.5-4.8c-0.3-0.7-3.3-8.4-3.5-9.2c-0.1-0.4-1.3-5.5-0.9-5.7c0.2-0.1,3.3,1.9,3.9,2.5
		c0.1,0.1,0.9,1,1,1.2c0.2,0.4,0.6,0.5,1,0.5c0.3,0,0.7-0.1,1-0.1c0.5-0.4,0.6-1,0.3-1.5c-0.1-0.2-0.3-0.4-0.5-0.6
		c-0.3-0.2-3.3-2-3.5-2.2c-1.1-1-2.1-2.1-3-3.3c-0.1-1.7,0.7-2.3,0.5-3.8c-0.3-1.2-0.8-2.4-1.6-3.3c-1.5-2.2-1.2-4.5-0.8-4.5
		c1.3,0,2-0.5,2.5-2.4c0.4-1.1,0.3-2.2-0.1-3.3c-0.4-0.8-2-1.5-3.3-1.3c-1,0.1-1.9,0.8-2.2,1.8c-1.2,2.7-0.4,4.2-1.4,6.9
		c-0.4,1.1-2.2,3.6-1.4,4.8l-0.1,0.4c-0.8-1.8-1.4-3.6-2-5.4c-0.1-0.2,0.2-0.4,0.2-0.7c0-0.3,0-0.6-0.1-0.8c0-0.1,0-0.6,0.5-0.5
		c1.6,0.3,2.1-1.2,2.3-2.1c0.4-1.6,0.3-3.2-0.3-3.7c-0.9-0.8-2.1-1.2-3.2-1c-1.4,0.3-2.3,1.5-2.2,2.9c0.1,2.1,0.9,2.8,0.3,3.7
		c-0.2,0.3-3.9,2.3-4.6,4c-1.3,3-2.1,6.2-2.5,9.4c0,0.2-1.5-0.8-1.6-1c-0.2-0.2-0.1-2.9-0.5-5.6c-0.2-1.2-1.2-3.9-1.3-4.4
		s0-1.7,0.3-1.7c1.3,0.3,2.4-2.4,2.5-3.6c0-1.5-0.2-2.6-0.8-3.1c-0.8-0.6-1.8-0.9-2.9-0.8c-1.4,0.5-2.2,1.3-2.3,2.1
		c-0.1,1,0,2.1,0.3,3.1c0,0.3,0,0.7,0,1c-0.1,1.2-0.6,2.3-1.3,3.2c-1.2,1.4-2,3.1-2.4,5c-0.5-1.2-1.1-2.5-1.7-3.6
		c-0.3-0.4-0.5-0.9-0.6-1.4c-0.3-0.9-0.5-1.7-0.1-1.7c2,0.2,3-3.8,3-4.6c-0.1-1.5-1.3-2.7-2.8-2.8c-2.4,0-2.7,2.2-2.8,2.9
		c-0.1,0.8-0.1,2.7-0.1,3.2c-0.1,0.6-0.2,1.2-0.4,1.8c-0.1,0.5-1,1.1-1.6,3.2c-0.3-0.4-0.6-0.8-0.9-1.3c0-0.9,0.1-1.7,0.4-2.5
		c0.2,0,0.5,0.1,0.7,0.1c0.6,0,1.5-1,1.6-3.3c0.1-1.2-0.3-2.4-1.2-3.3c-0.4-0.4-1.5-0.9-3.3-0.9H111v52.8h266.2c0.8,0,0.3-1-0.3-1.1
		c-0.7-0.2-1.4-0.6-1.9-1.1c-0.3-0.3-1.6-6.7-1.6-6.7l1.5-2.4l2.1,4.8c-0.4,0.3-0.6,0.8-0.8,1.3c-0.2,1,1.5,3.4,1.6,3.7
		c0.4,0.7,0.9,1.6,1.4,1.6h0.9c1.8-0.3,3.5-0.7,5.2-1.3c0.9-0.5,1.3-0.8,1-1.3c-0.2-0.4-1.2-0.3-1.3-0.3c-0.5-0.1-2.4,0-3.2-0.6
		c-0.5-0.3-0.7-0.8-1-1.8c0,0,3.2-3.9,3.8-3.8c0.5,0.1,3.3,6.1,3.3,6.3c0.1,0.3-0.4,1.6-0.1,2.5c0,0.2,0.5,0.3,0.6,0.3h7.2
		c0.1,0,1-0.3,0.5-0.8c-0.5-0.2-1-0.3-1.6-0.4c-0.1,0-0.9-0.2-0.9-0.3c0.7-0.2,1.4-0.5,2.1-0.8c0.2-0.1,0.6-0.3,0.7-0.5
		c0.2-0.2,0.2-0.5,0.1-0.8c-0.2-0.3-1.1-0.2-1.3-0.2c-0.9,0.1-1.8,0.1-2.7,0.1c-0.2-2.2,3.9-8.5,4.2-8.9c1.2-1.6,3.8-7.9,3.8-7.9
		c1.3,2.4,2.7,4.8,4.3,7c1,1.8,1.8,3.6,2.6,5.4c-0.4,0.6-0.8,1.1-1.4,1.5c-0.4,0.2-1.4,0.6-1.5,1c-0.1,0.3-0.1,0.7,0,1
		c0.3,0.7,2.1,3.1,2.3,3.4c0.3,0.4,0.6,0.8,1,1.1c0.6,0.2,1.2,0.3,1.8,0.2c0.1-0.2,0-0.5-0.1-0.7c-0.3-0.3-0.6-0.7-0.8-1
		c-0.3-0.7-0.5-1.4-0.5-2.1c0.1-0.5,0.3-1,0.6-1.3c0.5,0.9,0.9,1.9,1.2,2.9c0.1,0.4,0.2,0.8,0.4,1.1c0.3,0.4,0.9,0.5,1.3,0.2
		c0.6-0.3,2.9-1.2,3.4-1.4c0.5-0.2,1.6-0.9,1.5-1.3c-0.3-0.9-3-0.2-4.5-0.6c-0.7-0.2-1.1-2.9-1.1-2.9c1-1.2,2-2.3,3.1-3.3
		c1.4-1.2,2.7-2.6,3.8-4.2c0-0.1,0.1-0.2,0.1-0.2c0.1,0,0,0.2,0,0.2c0,0.2-0.3,4.8-0.4,7.5c0,1,0.4,3.4,0,4.8c0,0.2-0.2,0.7-0.3,1.1
		c-0.1,0.4,0.1,0.9,0.4,1.2H425.3z M364.2,1897.6c-0.1-0.2,0.9-5.3,0.9-5.3s1.5,3.8,1.6,4.1c0,0-0.4,0.9-0.5,1.4
		c-0.2,0.6,0.9,1.8,0.9,1.8S365,1899.3,364.2,1897.6L364.2,1897.6z M368.8,1893.6c0,0-1.2-4.6-1.2-4.8l0.6-0.7l1.7,3.9L368.8,1893.6
		z M370.8,1899.2c-0.4-0.3-0.8-1.9-0.8-1.9l1-1.8l1,3.5C372,1899,371.1,1899.5,370.8,1899.2L370.8,1899.2z M379.5,1892.5
		c0,0-1.9-4.3-1.9-5.2c0-0.3,1.3-2.6,1.9-2.5c0.3,0,2.8,3.9,2.8,4.4S379.5,1892.6,379.5,1892.5L379.5,1892.5z M386.7,1882.1
		c-0.4,1.2-0.9,2.7-1.2,2.7c0,0-0.9-1.8-1.7-4.2c-0.5-1.3-1.3-3.1-1.3-4.2c0-1.9-0.3-4.5-0.1-4.6s1.4,0.6,1.5,0.8
		c0,0,0.3,3.3,0.2,3.5c-0.3,0.3-0.4,0.8-0.5,1.2c-0.1,0.9,0.6,1.8,1.6,1.9c0,0,0,0,0,0c0.7,0,1.3-0.5,1.5-1.2
		C387,1879.4,387,1880.8,386.7,1882.1L386.7,1882.1z M388.8,1892.7l-1-2.6c0.1-0.3,1.3-1.3,1.3-1.3L388.8,1892.7z M395.4,1877
		c-0.7,2-1.6,8.9-1.6,8.9c0.5-3.4-0.2-8.1-0.1-9.1c0.1-2,0.6-8.5,1.1-9.4c0-0.1,2.3,3.9,2.4,4.1
		C397.2,1872.9,396.3,1874.7,395.4,1877L395.4,1877z"/>
	<path d="M168.3,1856.9c0.4-0.6,1.3-3.2,2.1-3.2c0.7,0,3.2,7.7,6.3,15.9c3.4,9,6.8,18.5,6.8,18.5c0.8,2.5,1.8,5.1,2.8,5.9
		c2,1.5,3.3,0.5,3.3,2c0,0.9-1.3,0.9-1.9,0.9h-16.4c-1.1,0-1.1-0.5-1.1-0.8c0-1.5,3.9-0.3,4.6-4.7c0.1-0.8-1.2-8.2-3.3-8.5
		c-2.6-0.2-5.1-0.3-7.7-0.2c-3.3,0-5.5-0.1-6.4,0.1c-2,0.3-4.6,4.9-4.9,8.3c-0.4,4.6,6.4,2.6,6.4,4.9c0,0.3-0.1,0.9-0.7,0.9h-13.5
		c-1,0-1.3-0.3-1.3-0.8c0-1.5,3.2-1.4,4.7-4.3L168.3,1856.9z M160.9,1874.5c-0.6,1.1-2.1,3.5-2.1,4.2c0,1.1,3.5,0.8,5,0.8
		c4.1,0,6.9,0.1,7.2-0.5s-1.4-4-2-5.6l-1.9-4.8c-0.4-1.2-1-2-1.3-2c-0.8,0-0.8,0.6-1.4,1.7L160.9,1874.5z"/>
	<path d="M201.4,1889.3c-0.2,5.9,5.6,4.1,5.6,6.3c0,0.8-1.3,1-1.6,1H189c-1.3,0-0.9-0.1-1-0.9c-0.2-1.6,0.7-0.4,2.5-2
		c1-0.8,1.7-2,1.9-3.3c0.6-4.8,2.3-26.1,2.3-26.1c0.1-1,0.7-4.9-0.2-6.2c-2.1-3-5.2-0.6-4.9-3c0.1-0.8,1.8-1.1,2.9-1.1
		c1.4,0,3.4,0.1,8.2,0.1c1.9,0,4.7-0.1,6.3-0.1c0.8,0,2.3,0.1,2.3,0.7c0,2-4.6,0.8-5.1,5.2C203.3,1867.3,201.4,1887.9,201.4,1889.3z
		"/>
	<path d="M233.2,1872.4c5.9-1.1,4.6-5.6,6.4-5.6c0.7,0,0.9,0.6,0.7,1.7c-0.6,3.8-1,7.7-1,11.5c0,0.6-0.5,1.3-1.1,1.2
		c-1.5-0.1,0.1-6.2-6.5-6.1c-1.6-0.1-3.2,0.1-4.7,0.7c-1.1,0.6-1,4.1-1.2,7.5c-0.2,2.6-0.5,5.2-0.5,5.7c-0.1,3.9,0.5,4.4,4.3,4.3
		c13.2-0.2,14.6-8.2,15.9-8.1c0,0,1.2-0.3,0.8,1.7c-1.1,5.8-4.1,9-7.7,9.7h-26.2c-0.8,0-1.4-0.1-1.4-0.5c0-2.9,4.4-0.4,5.2-6.5
		l2.3-23c0.2-3.2,0-6,0-6.9c0-4.5-5.2-2.6-5.2-4.6c0-1,1.4-1.2,1.6-1.2c3.8,0,7.6,0.1,11.5,0.1c13.6,0,16.9,0,18.3,0
		c0.7,0,1.5,0.1,1.5,0.7c0,2.3-0.6,4.6-0.6,6c0,2.4,0.1,3.5-0.9,3.7c-1.7,0.4-0.6-3.6-2.2-5.2c-1.6-2-6.9-2-9.5-2
		c-1.6,0-3.3-0.4-4.4,0.6c-0.6,0.6-0.7,3-1,6.1c-0.2,2-0.4,4.6-0.6,6.6c-0.2,1.6,0,2,1.7,2L233.2,1872.4z"/>
	<path d="M301,1872.4c5.9-1.1,4.6-5.6,6.4-5.6c0.7,0,0.9,0.6,0.7,1.7c-0.6,3.8-0.9,7.7-1,11.5c0,0.6-0.5,1.3-1.1,1.2
		c-1.5-0.1,0.1-6.2-6.5-6.1c-1.6-0.1-3.2,0.1-4.7,0.7c-1.1,0.6-1,4.1-1.2,7.5c-0.2,2.6-0.5,5.2-0.5,5.7c-0.1,3.9,0.6,4.4,4.3,4.3
		c13.2-0.2,14.6-8.2,15.9-8.1c0,0,1.2-0.3,0.8,1.7c-1.1,5.8-4.1,9-7.7,9.7h-26.2c-0.8,0-1.4-0.1-1.4-0.5c0-2.9,4.4-0.4,5.2-6.5
		l2.3-23c0.2-3.2,0-6,0-6.9c0-4.5-5.2-2.6-5.2-4.6c0-1,1.4-1.2,1.6-1.2c3.8,0,7.6,0.1,11.5,0.1c13.6,0,16.9,0,18.3,0
		c0.7,0,1.5,0.1,1.5,0.7c0,2.3-0.6,4.6-0.6,6c0,2.4,0.1,3.5-0.9,3.7c-1.7,0.4-0.6-3.6-2.2-5.2c-1.6-2-6.9-2-9.5-2
		c-1.6,0-3.3-0.4-4.4,0.6c-0.6,0.6-0.7,3-1,6.1c-0.2,2-0.4,4.6-0.6,6.6c-0.2,1.6,0,2,1.7,2L301,1872.4z"/>
	<path d="M278.6,1865.8c-0.1,0.6-0.6,1.1-1.3,1.2c-1.4,0-0.9-2.7-3.3-6c-1.8-2.4-5.3-4.8-8.4-4.8c-3.8,0-7.6,1.3-7.9,5.7
		c-0.3,4.4,2.3,6,12.1,9.3c4.1,1.4,8.4,4.8,8.5,9.6c0.3,11.5-9.1,17.3-15.9,16.5c-2.4-0.4-4.8-0.8-7.1-1.5c-2.3-0.6-4.2-1-4.3-1.7
		c0,0-1.2-7.6-1.5-9.4c-0.2-1.3,0.4-1.6,1.1-1.6c1.2,0,1.6,3.5,4,6.7c1.9,2.5,5.1,5,9,5c4,0,8.5-2.1,8.9-7.1c0.3-3.2-1.5-5-3.9-6.2
		c-3.7-1.8-8.2-2.2-13.3-6.2c-3.5-2.9-3.4-6.1-3.5-9.7c-0.1-6.2,7-12.1,13.5-12.1c4.4,0,8.4,2.5,10.3,2.5c0.5,0,1.9-1.2,2.4-1.2
		c1.1,0,0.8,1.2,0.8,2.1C278.7,1856.7,278.6,1863.8,278.6,1865.8z"/>
	<path d="M357.3,1865.4c0,1.6,0.3,2.5-0.8,2.6c-1.1,0.1-2.2-6.4-8-9.9c-1.9-1.2-4.3-1.8-7.5-2.1c-3.1-0.3-14.5,1.4-15,19.5
		c-0.2,8.6,4.3,17.1,13.1,17.2c9.5,0.1,14.7-7.8,16.2-7.8c0.5,0,0.8-0.1,0.8,0.6c0,2.6-9.8,11.8-19.6,11.8c-10.8,0-21.1-7-20-19.9
		c0.4-4.3,1.7-10.2,5-14.7c4.4-5.9,11.9-8.8,18.1-8.8c8.5,0,12.4,3.1,13.9,3.4s2.1-3.5,3.4-2.4
		C357.3,1855.1,357.2,1863.9,357.3,1865.4z"/>
	<path d="M361,1895.2c-0.1-0.2-0.2-0.5-0.3-0.7c-0.1-0.2-0.3-0.4-0.4-0.6c-0.2-0.2-0.4-0.3-0.6-0.4c-0.2-0.1-0.4-0.2-0.7-0.3
		c-0.2-0.1-0.5-0.1-0.8-0.1c-0.3,0-0.5,0-0.7,0.1c-0.2,0.1-0.5,0.2-0.7,0.3c-0.2,0.1-0.4,0.3-0.6,0.4c-0.2,0.2-0.3,0.4-0.4,0.6
		c-0.4,0.7-0.5,1.5-0.3,2.2c0.1,0.2,0.2,0.5,0.3,0.7c0.1,0.2,0.3,0.4,0.4,0.6c0.2,0.2,0.4,0.3,0.6,0.4c0.4,0.3,0.9,0.4,1.4,0.4
		c0.3,0,0.5,0,0.8-0.1c0.2-0.1,0.5-0.2,0.7-0.3c0.2-0.1,0.4-0.3,0.6-0.4c0.3-0.3,0.6-0.8,0.7-1.3c0.1-0.3,0.1-0.5,0.1-0.8
		C361.1,1895.7,361.1,1895.5,361,1895.2z M360.6,1896.7c-0.1,0.2-0.1,0.4-0.2,0.6c-0.2,0.4-0.5,0.7-0.9,0.9
		c-0.2,0.1-0.4,0.2-0.6,0.3c-0.2,0.1-0.4,0.1-0.7,0.1c-0.2,0-0.4,0-0.7-0.1c-0.2-0.1-0.4-0.1-0.6-0.3c-0.4-0.2-0.7-0.5-0.9-0.9
		c-0.3-0.6-0.4-1.3-0.2-1.9c0.1-0.4,0.3-0.8,0.6-1.1c0.1-0.2,0.3-0.3,0.5-0.4c0.2-0.1,0.4-0.2,0.6-0.3c0.2-0.1,0.4-0.1,0.7-0.1
		c1,0,1.9,0.6,2.3,1.5c0.1,0.3,0.2,0.7,0.2,1C360.7,1896.2,360.7,1896.5,360.6,1896.7z"/>
	<path d="M359.3,1896.9c-0.1,0-0.1,0.1-0.2,0.1l-0.2,0.1l-0.2,0.1c-0.1,0-0.2,0-0.3,0c-0.2,0-0.3,0-0.4-0.1
		c-0.1-0.1-0.3-0.1-0.3-0.2c-0.1-0.1-0.2-0.2-0.2-0.4c-0.1-0.3-0.1-0.7,0-1.1c0-0.1,0.1-0.3,0.2-0.4c0.1-0.1,0.2-0.2,0.4-0.3
		c0.2-0.1,0.3-0.1,0.5-0.1c0.1,0,0.3,0,0.4,0c0.1,0,0.2,0.1,0.2,0.1c0.1,0,0.1,0.1,0.2,0.1c0,0,0.1,0,0.1,0h0.1c0,0,0,0,0,0l0.2-0.3
		c-0.2-0.1-0.3-0.3-0.5-0.3c-0.2-0.1-0.5-0.1-0.7-0.1c-0.2,0-0.5,0-0.7,0.1c-0.2,0.1-0.4,0.2-0.6,0.4c-0.2,0.2-0.3,0.4-0.4,0.6
		c-0.1,0.2-0.1,0.5-0.1,0.7c0,0.2,0,0.5,0.1,0.7c0.1,0.4,0.5,0.8,0.9,0.9c0.2,0.1,0.5,0.1,0.7,0.1c0.3,0,0.5,0,0.8-0.1
		c0.2-0.1,0.4-0.2,0.5-0.4l-0.2-0.3C359.3,1896.9,359.3,1896.9,359.3,1896.9z"/>
	<path class="st0" d="M115.2,1827.2c0.3-0.6,0.7-1.1,1.1-1.6c0.4-0.5,0.8-0.9,1.3-1.2c0.4-0.3,0.9-0.6,1.4-0.8
		c0.5-0.2,1-0.3,1.5-0.3c1.1-0.1,2.1,0.4,2.7,1.3c0.7,1.1,1.1,2.4,1,3.7c0,0.7-0.1,1.5-0.2,2.2c-0.2,0.7-0.4,1.4-0.7,2.1
		c-0.3,0.7-0.6,1.3-1,1.9c-0.4,0.6-0.8,1.1-1.3,1.5c-0.5,0.4-1,0.8-1.6,1c-0.6,0.2-1.2,0.4-1.8,0.4c-0.6,0-1.3-0.1-1.8-0.4
		c-0.5-0.3-1-0.7-1.4-1.1l-0.7,6h-2.4l2.2-18.4h1.2c0.4,0,0.8,0.2,0.8,0.6c0,0.1,0,0.1,0,0.2L115.2,1827.2z M114.5,1834.2
		c0.3,0.5,0.7,0.8,1.2,1c0.5,0.2,1,0.3,1.5,0.3c0.5,0,0.9-0.1,1.3-0.3c0.4-0.2,0.8-0.5,1.1-0.8c0.4-0.4,0.7-0.8,0.9-1.2
		c0.3-0.5,0.5-1,0.7-1.5c0.2-0.5,0.3-1,0.4-1.6c0.1-0.5,0.1-1.1,0.1-1.7c0.1-0.9-0.1-1.7-0.6-2.5c-0.4-0.5-1-0.9-1.6-0.8
		c-0.5,0-0.9,0.1-1.3,0.4c-0.5,0.3-0.9,0.7-1.3,1.1c-0.4,0.5-0.8,1.1-1.2,1.7c-0.4,0.7-0.7,1.4-0.9,2.2L114.5,1834.2z"/>
	<path class="st0" d="M131.3,1837.4c-0.7,0-1.4-0.1-2.1-0.4c-0.6-0.3-1.1-0.6-1.6-1.1c-0.5-0.5-0.9-1.1-1.1-1.8
		c-0.3-0.8-0.4-1.6-0.4-2.4c0-1.1,0.2-2.2,0.5-3.3c0.3-1,0.8-1.9,1.5-2.7c0.6-0.8,1.4-1.4,2.2-1.8c0.9-0.4,1.8-0.7,2.8-0.7
		c0.7,0,1.4,0.1,2.1,0.4c0.6,0.3,1.1,0.6,1.6,1.1c0.5,0.5,0.8,1.1,1.1,1.8c0.3,0.8,0.4,1.6,0.4,2.4c0,1.1-0.2,2.2-0.5,3.3
		c-0.3,1-0.8,1.9-1.5,2.7c-0.6,0.8-1.4,1.4-2.2,1.8C133.2,1837.2,132.3,1837.4,131.3,1837.4z M131.5,1835.5c0.6,0,1.3-0.2,1.8-0.5
		c0.6-0.4,1-0.9,1.4-1.5c0.4-0.6,0.7-1.3,0.9-2.1c0.2-0.8,0.3-1.6,0.3-2.5c0.1-1-0.2-2-0.8-2.9c-0.5-0.7-1.3-1-2.2-1
		c-0.6,0-1.3,0.2-1.8,0.5c-0.6,0.4-1,0.9-1.4,1.4c-0.4,0.6-0.7,1.3-0.9,2.1c-0.2,0.8-0.3,1.6-0.3,2.5c-0.1,1,0.2,2,0.7,2.9
		C129.9,1835.2,130.7,1835.6,131.5,1835.5L131.5,1835.5z"/>
	<path class="st0" d="M159.1,1823.4l-5.8,13.8h-1.8c-0.2,0-0.3-0.2-0.4-0.5l-1.7-9.3l0-0.4c0-0.1,0-0.3,0-0.4
		c-0.1,0.3-0.2,0.6-0.3,0.9l-4,9.3c-0.1,0.3-0.3,0.5-0.6,0.5h-1.8l-2.4-13.8h1.8c0.2,0,0.3,0,0.4,0.1c0.1,0.1,0.2,0.2,0.2,0.4
		l1.3,8.9c0,0.3,0,0.6,0.1,0.9c0.1,0.3,0,0.6,0,0.9c0.1-0.3,0.2-0.6,0.3-0.9l0.4-0.9l3.8-8.9c0-0.1,0.1-0.3,0.3-0.3
		c0.1-0.1,0.3-0.1,0.4-0.1h1c0.1,0,0.3,0,0.4,0.1c0.1,0.1,0.2,0.2,0.2,0.3l1.6,8.9c0,0.3,0.1,0.6,0.1,0.9l0.1,0.9
		c0.1-0.3,0.2-0.6,0.3-0.9c0.1-0.3,0.2-0.6,0.3-0.9l3.5-8.9c0-0.1,0.1-0.3,0.3-0.4c0.1-0.1,0.3-0.1,0.4-0.1L159.1,1823.4z"/>
	<path class="st0" d="M170.3,1834.7c-0.4,0.4-0.9,0.9-1.4,1.2c-0.4,0.3-0.9,0.6-1.3,0.8c-0.5,0.2-0.9,0.4-1.4,0.5
		c-0.5,0.1-1.1,0.2-1.6,0.2c-0.7,0-1.4-0.1-2.1-0.4c-0.6-0.3-1.1-0.6-1.6-1.1c-0.5-0.5-0.8-1.1-1-1.8c-0.2-0.7-0.4-1.5-0.4-2.3
		c0-0.7,0.1-1.4,0.2-2.1c0.1-0.7,0.4-1.4,0.7-2c0.3-0.6,0.6-1.2,1-1.8c0.4-0.5,0.9-1,1.4-1.4c0.5-0.4,1.1-0.7,1.8-0.9
		c0.7-0.2,1.4-0.3,2.1-0.3c0.6,0,1.2,0.1,1.8,0.3c0.5,0.2,0.9,0.4,1.3,0.8c0.3,0.3,0.6,0.6,0.7,1c0.2,0.3,0.2,0.7,0.2,1.1
		c0,0.6-0.1,1.1-0.4,1.7c-0.3,0.6-0.8,1-1.3,1.4c-0.8,0.5-1.7,0.8-2.7,1c-1.4,0.4-2.9,0.6-4.4,0.7c0,0.1,0,0.2,0,0.3s0,0.2,0,0.3
		c-0.1,1,0.2,2,0.8,2.8c0.6,0.7,1.5,1,2.4,1c0.4,0,0.8,0,1.2-0.1c0.3-0.1,0.6-0.2,0.9-0.3c0.2-0.1,0.5-0.3,0.7-0.4l0.6-0.4
		c0.1-0.1,0.3-0.2,0.5-0.3c0.1-0.1,0.3-0.1,0.4-0.1c0.2,0,0.3,0.1,0.5,0.2L170.3,1834.7z M166.5,1825c-0.6,0-1.1,0.1-1.6,0.4
		c-0.5,0.2-0.9,0.6-1.3,1c-0.4,0.4-0.7,0.9-1,1.5c-0.3,0.6-0.5,1.2-0.6,1.8c1.1-0.1,2.3-0.3,3.4-0.6c0.7-0.2,1.3-0.4,1.9-0.7
		c0.4-0.2,0.7-0.5,0.9-0.8c0.1-0.3,0.2-0.6,0.2-0.9c0-0.2,0-0.4-0.1-0.5c-0.1-0.2-0.2-0.3-0.3-0.5c-0.2-0.2-0.4-0.3-0.6-0.4
		C167.1,1825.1,166.8,1825,166.5,1825L166.5,1825z"/>
	<path class="st0" d="M176,1827.3c0.3-0.7,0.7-1.4,1.2-2c0.4-0.5,0.8-1,1.3-1.3c0.4-0.3,0.9-0.5,1.4-0.6c0.5-0.1,1,0,1.5,0.2
		l-0.4,2.3c-1-0.5-2.3-0.3-3.1,0.5c-0.9,0.8-1.6,2.3-2.2,4.4l-0.8,6.3h-2.4l1.7-13.8h1.2c0.4-0.1,0.8,0.2,0.8,0.6c0,0.1,0,0.1,0,0.2
		L176,1827.3z"/>
	<path class="st0" d="M192.1,1834.7c-0.4,0.4-0.9,0.9-1.4,1.2c-0.4,0.3-0.9,0.6-1.4,0.8c-0.5,0.2-0.9,0.4-1.4,0.5
		c-0.5,0.1-1.1,0.2-1.6,0.2c-0.7,0-1.4-0.1-2.1-0.4c-0.6-0.3-1.1-0.6-1.6-1.1c-0.5-0.5-0.8-1.1-1-1.8c-0.2-0.7-0.4-1.5-0.3-2.3
		c0-0.7,0.1-1.4,0.2-2.1c0.1-0.7,0.4-1.4,0.7-2c0.3-0.6,0.6-1.2,1-1.8c0.4-0.5,0.9-1,1.4-1.4c0.5-0.4,1.1-0.7,1.8-0.9
		c0.7-0.2,1.4-0.3,2.1-0.3c0.6,0,1.2,0.1,1.8,0.3c0.5,0.2,0.9,0.4,1.2,0.8c0.3,0.3,0.6,0.6,0.7,1c0.2,0.3,0.2,0.7,0.2,1.1
		c0,0.6-0.1,1.1-0.4,1.7c-0.3,0.6-0.8,1-1.3,1.4c-0.8,0.5-1.7,0.8-2.7,1c-1.4,0.4-2.9,0.6-4.4,0.7c0,0.1,0,0.2,0,0.3s0,0.2,0,0.3
		c-0.1,1,0.2,2,0.8,2.8c0.6,0.7,1.5,1,2.4,1c0.4,0,0.8,0,1.2-0.1c0.3-0.1,0.6-0.2,0.9-0.3c0.3-0.1,0.5-0.3,0.7-0.4l0.6-0.4
		c0.2-0.1,0.3-0.2,0.5-0.3c0.1-0.1,0.3-0.1,0.4-0.1c0.2,0,0.3,0.1,0.5,0.2L192.1,1834.7z M188.3,1825c-0.5,0-1.1,0.1-1.6,0.4
		c-0.5,0.2-0.9,0.6-1.3,1c-0.4,0.4-0.7,0.9-1,1.5c-0.3,0.6-0.5,1.2-0.6,1.8c1.1-0.1,2.3-0.3,3.4-0.6c0.7-0.2,1.3-0.4,1.9-0.7
		c0.4-0.2,0.7-0.4,0.9-0.8c0.1-0.3,0.2-0.6,0.2-0.9c0-0.2,0-0.4-0.1-0.5c-0.1-0.2-0.2-0.3-0.3-0.5c-0.2-0.2-0.4-0.3-0.6-0.4
		C188.9,1825.1,188.6,1825,188.3,1825z"/>
	<path class="st0" d="M207.5,1817.2l-2.5,20h-1.3c-0.2,0-0.5-0.1-0.6-0.2c-0.1-0.2-0.2-0.4-0.2-0.6l0.3-2.9
		c-0.3,0.6-0.7,1.1-1.1,1.6c-0.4,0.5-0.8,0.9-1.3,1.2c-0.4,0.3-0.9,0.6-1.4,0.8c-0.5,0.2-1,0.3-1.5,0.3c-1.1,0.1-2.1-0.4-2.7-1.3
		c-0.7-1.1-1.1-2.4-1-3.7c0-0.7,0.1-1.5,0.2-2.2c0.1-0.7,0.4-1.4,0.7-2.1c0.3-0.7,0.6-1.3,1-1.9c0.4-0.6,0.8-1.1,1.3-1.5
		c0.5-0.4,1-0.7,1.6-1c0.6-0.2,1.2-0.4,1.8-0.4c0.6,0,1.3,0.1,1.8,0.4c0.6,0.3,1,0.7,1.4,1.1l0.9-7.6L207.5,1817.2z M204,1826.4
		c-0.3-0.5-0.7-0.8-1.2-1c-0.5-0.2-1-0.3-1.5-0.3c-0.7,0-1.4,0.2-1.9,0.6c-0.6,0.4-1.1,1-1.5,1.7c-0.4,0.7-0.7,1.5-0.9,2.3
		c-0.2,0.8-0.3,1.6-0.3,2.5c-0.1,0.9,0.1,1.7,0.6,2.5c0.4,0.6,1,0.9,1.7,0.8c0.5,0,0.9-0.1,1.3-0.4c0.5-0.3,0.9-0.7,1.3-1.1
		c0.4-0.5,0.8-1.1,1.2-1.7c0.4-0.7,0.7-1.4,0.9-2.2L204,1826.4z"/>
	<path class="st0" d="M218.6,1827c0.3-0.5,0.7-1,1.1-1.5c0.4-0.4,0.8-0.8,1.2-1.2c0.4-0.3,0.9-0.6,1.4-0.7c0.5-0.2,0.9-0.3,1.4-0.3
		c1.1,0,2.1,0.4,2.7,1.3c0.7,1.1,1.1,2.4,1,3.7c0,1.5-0.3,3-0.9,4.4c-0.3,0.7-0.6,1.3-1,1.9c-0.4,0.6-0.8,1.1-1.3,1.5
		c-0.5,0.4-1,0.8-1.6,1c-0.6,0.2-1.2,0.4-1.8,0.4c-0.7,0-1.4-0.1-2-0.5c-0.6-0.3-1.1-0.8-1.5-1.3l-0.2,0.9c-0.1,0.2-0.1,0.4-0.3,0.5
		c-0.2,0.1-0.4,0.2-0.6,0.2h-1.3l2.4-20h2.4L218.6,1827z M217.7,1834.2c0.3,0.5,0.7,0.8,1.2,1c0.5,0.2,1,0.3,1.5,0.3
		c0.5,0,0.9-0.1,1.3-0.3c0.4-0.2,0.8-0.5,1.1-0.8c0.4-0.4,0.7-0.8,0.9-1.2c0.3-0.5,0.5-1,0.7-1.5c0.2-0.5,0.3-1,0.4-1.6
		c0.1-0.5,0.1-1.1,0.1-1.7c0.1-0.9-0.1-1.7-0.6-2.5c-0.4-0.5-1-0.9-1.6-0.8c-0.5,0-0.9,0.2-1.3,0.4c-0.5,0.3-0.9,0.7-1.3,1.1
		c-0.5,0.5-0.8,1.1-1.2,1.7c-0.4,0.7-0.7,1.4-0.9,2.2L217.7,1834.2z"/>
	<path class="st0" d="M241.8,1823.4l-9.3,17.9c-0.1,0.2-0.2,0.3-0.3,0.4c-0.1,0.1-0.3,0.1-0.5,0.1h-1.8l3-5.5l-3.6-12.9h2
		c0.2,0,0.3,0,0.4,0.1c0.1,0.1,0.2,0.2,0.2,0.4l2.2,8.7c0,0.2,0.1,0.4,0.1,0.6c0,0.2,0,0.4,0.1,0.6l0.2-0.6l0.3-0.6l4.3-8.7
		c0.1-0.1,0.2-0.3,0.3-0.3c0.1-0.1,0.3-0.1,0.4-0.1L241.8,1823.4z"/>
	<circle class="st0" cx="1824.3" cy="422.6" r="8.9"/>
	<circle class="st0" cx="1778.1" cy="422.6" r="8.9"/>
	<circle class="st0" cx="1824.3" cy="469.5" r="8.9"/>
	<circle class="st0" cx="1778.1" cy="469.5" r="8.9"/>
	<circle class="st0" cx="1824.3" cy="516.4" r="8.9"/>
	<circle class="st0" cx="1778.1" cy="516.4" r="8.9"/>
	<circle class="st0" cx="1824.3" cy="563.3" r="8.9"/>
	<circle class="st0" cx="1778.1" cy="563.3" r="8.9"/>
	<circle class="st0" cx="1824.3" cy="610.1" r="8.9"/>
	<circle class="st0" cx="1778.1" cy="610.1" r="8.9"/>
	<circle class="st0" cx="1824.3" cy="657" r="8.9"/>
	<circle class="st0" cx="1778.1" cy="657" r="8.9"/>
	<circle class="st0" cx="198.3" cy="1320.7" r="8.9"/>
	<circle class="st0" cx="152.2" cy="1320.7" r="8.9"/>
	<circle class="st0" cx="198.3" cy="1367.6" r="8.9"/>
	<circle class="st0" cx="152.2" cy="1367.6" r="8.9"/>
	<circle class="st0" cx="198.3" cy="1414.4" r="8.9"/>
	<circle class="st0" cx="152.2" cy="1414.4" r="8.9"/>
	<circle class="st0" cx="198.3" cy="1461.3" r="8.9"/>
	<circle class="st0" cx="152.2" cy="1461.3" r="8.9"/>
	<circle class="st0" cx="198.3" cy="1508.2" r="8.9"/>
	<circle class="st0" cx="152.2" cy="1508.2" r="8.9"/>
	<circle class="st0" cx="198.3" cy="1555.1" r="8.9"/>
	<circle class="st0" cx="152.2" cy="1555.1" r="8.9"/>
</g>
</svg>
